<?xml version="1.0" encoding="UTF-8"?>
<svg id="Layer_1" xmlns="http://www.w3.org/2000/svg" version="1.1" viewBox="0 0 500 500">
  <!-- Generator: Adobe Illustrator 29.3.1, SVG Export Plug-In . SVG Version: 2.1.0 Build 151)  -->
  <defs>
    <style>
      .st0 {
        fill: #fff;
      }

      .st1 {
        fill: #1a1a1a;
      }
    </style>
  </defs>
  <circle class="st0" cx="250" cy="250" r="220"/>
  <path class="st1" d="M250,30c-121.5,0-220,98.5-220,220s98.5,220,220,220,220-98.5,220-220S371.5,30,250,30ZM210,110h170l-10.2,8.8c0,.4.2.8.2,1.2v52.8c6,3.4,10,9.8,10,17.2v60c0,11-9,20-20,20s-20-9-20-20v-60c0-7.4,4-13.8,10-17.2v-37.1l-35.9,30.8c3.5,7,5.9,15.5,5.9,25.9,0,27.2-15.2,40.7-30.3,52.7-4.7,4.8-10.2,10-10.2,18.1s5.5,12.5,9.5,15.7l12.9,10.3c15.9,13.6,30.3,26.1,30.3,51.4s-32.9,69.4-94.9,69.4-77.5-25.3-77.5-52.5,6.5-31.9,27.8-44.8c22.3-13.9,52.6-15.8,68.9-16.9-5.1-6.6-10.9-13.5-10.9-25s1.9-9.8,3.7-14.3c-4,.4-8,.8-11.6.8-38,0-59.7-28.8-59.9-57.3h-67.8l100-90ZM242.7,142.4c-9.3,0-19.4,4.7-25.2,12.2-6.1,7.6-8,17.5-8,27,0,24.6,14.2,65.4,45.1,65.4s18.8-4.4,24.6-10.3c8.2-8.5,9-20.2,9-26.7,0-26.5-15.5-67.6-45.5-67.6ZM260.4,306.1c-3.2,0-22.7.7-37.8,5.9-8,3-31,11.7-31,37.8s24.8,44.8,63.4,44.8,53-17,53-39.7-11.8-28.6-39.2-48.4c-2.9-.4-4.7-.4-8.4-.4Z"/>
</svg>